<svg id="Layer_1_copy_3" data-name="Layer 1 copy 3" xmlns="http://www.w3.org/2000/svg" viewBox="0 0 354.6871 136.2342">
  <defs>
    <style>
      .cls-1 {
        fill: #fff;
      }
    </style>
  </defs>
  <title>cptpoint-logo-2-simple-white</title>
  <path class="cls-1" d="M551.2542,474.4515h35.6017q13.1811,0,21.1711,7.7479t7.99,19.7766q0,12-7.99,19.7766t-21.1711,7.7479H575.5148v20.5126H551.2542Zm40.5808,33.94a8.3617,8.3617,0,0,0,2.827-6.3363,8.4688,8.4688,0,0,0-2.7712-6.3662,9.3333,9.3333,0,0,0-6.6669-2.5262h-9.4673v17.675h9.4654c.0918.0028.1835.0037.2743.0037A9.3485,9.3485,0,0,0,591.835,508.3914Z" transform="translate(-335.3129 -444.7996)"/>
  <polygon class="cls-1" points="290.399 29.652 354.687 29.652 354.687 51.792 334.697 51.792 334.697 105.272 310.388 105.272 310.388 51.792 290.399 51.792 290.399 29.652"/>
  <path class="cls-1" d="M604.1738,548.0465a11.96,11.96,0,0,1-15.5441,0,9.5326,9.5326,0,0,1,0-13.2326,11.96,11.96,0,0,1,15.5441,0,9.5329,9.5329,0,0,1,0,13.2326Zm-11-9.9639a4.9193,4.9193,0,0,0,0,6.6952,4.4189,4.4189,0,0,0,3.2686,1.2759,4.3573,4.3573,0,0,0,3.1883-1.2759,4.9169,4.9169,0,0,0,0-6.6952,4.7225,4.7225,0,0,0-6.4569,0Z" transform="translate(-335.3129 -444.7996)"/>
  <g>
    <path class="cls-1" d="M612.9536,524.0433a3.3479,3.3479,0,1,1-3.3472,3.3476A3.3171,3.3171,0,0,1,612.9536,524.0433Z" transform="translate(-335.3129 -444.7996)"/>
    <rect class="cls-1" x="274.7712" y="87.7425" width="5.74" height="17.7761"/>
  </g>
  <path class="cls-1" d="M620.4332,532.5421h5.739v2.1129a6.4915,6.4915,0,0,1,5.5008-2.5905,6.2683,6.2683,0,0,1,6.8948,7.014v11.24h-5.7391v-9.1269c0-1.1558-.0406-2.63-.9571-3.5477a3.0119,3.0119,0,0,0-2.1924-.7973,3.1184,3.1184,0,0,0-2.3909.9572,4.5491,4.5491,0,0,0-1.1161,3.3878v9.1269h-5.739Z" transform="translate(-335.3129 -444.7996)"/>
  <g id="_Group_" data-name="&lt;Group&gt;">
    <path id="_Path_" data-name="&lt;Path&gt;" class="cls-1" d="M418.9233,522.3943a13.4057,13.4057,0,1,0,0-18.96A13.4081,13.4081,0,0,0,418.9233,522.3943Z" transform="translate(-335.3129 -444.7996)"/>
    <path id="_Path_2" data-name="&lt;Path&gt;" class="cls-1" d="M387.0441,512.9143a41.0651,41.0651,0,0,0,12.1148,29.2394,7.8457,7.8457,0,0,0,11.0956-11.0955,25.6555,25.6555,0,0,1,0-36.2881,7.8457,7.8457,0,1,0-11.0956-11.0955A41.0663,41.0663,0,0,0,387.0441,512.9143Z" transform="translate(-335.3129 -444.7996)"/>
    <path id="_Path_3" data-name="&lt;Path&gt;" class="cls-1" d="M361.2071,512.9143a66.7494,66.7494,0,0,0,19.6816,47.513,7.8456,7.8456,0,1,0,11.0955-11.0953,51.4945,51.4945,0,0,1,0-72.83,7.8457,7.8457,0,0,0-11.0955-11.0956A66.7367,66.7367,0,0,0,361.2071,512.9143Z" transform="translate(-335.3129 -444.7996)"/>
    <path id="_Path_4" data-name="&lt;Path&gt;" class="cls-1" d="M362.5806,447.0927a93.0773,93.0773,0,0,0,0,131.6432A7.8458,7.8458,0,1,0,373.6764,567.64a77.3813,77.3813,0,0,1,0-109.4472,7.8476,7.8476,0,0,0-11.0958-11.1005Z" transform="translate(-335.3129 -444.7996)"/>
  </g>
  <path class="cls-1" d="M514.2651,519.8472a15.526,15.526,0,1,1-.368-15.8357l25.8708.0048-.155-.7038a39.97,39.97,0,1,0,0,17.8977l.3022-1.3934Z" transform="translate(-335.3129 -444.7996)"/>
</svg>
